<?xml version="1.0" encoding="UTF-8"?>
<svg version="1.1" xmlns="http://www.w3.org/2000/svg" width="1200" height="1200">
<path d="M0 0 C396 0 792 0 1200 0 C1200 396 1200 792 1200 1200 C804 1200 408 1200 0 1200 C0 804 0 408 0 0 Z " fill="#F6F5F4" transform="translate(0,0)"/>
<path d="M0 0 C35.64 0 71.28 0 108 0 C108 11.88 108 23.76 108 36 C144.96 36 181.92 36 220 36 C220 48.21 220 60.42 220 73 C231.55 73 243.1 73 255 73 C255 84.22 255 95.44 255 107 C219.36 107.495 219.36 107.495 183 108 C182.67 119.55 182.34 131.1 182 143 C169.79 143 157.58 143 145 143 C145.33 192.17 145.66 241.34 146 292 C157.88 292.33 169.76 292.66 182 293 C182 316.1 182 339.2 182 363 C194.21 363 206.42 363 219 363 C219 374.88 219 386.76 219 399 C242.1 399 265.2 399 289 399 C289.33 410.88 289.66 422.76 290 435 C324.32 435.33 358.64 435.66 394 436 C394 447.88 394 459.76 394 472 C454.06 472 514.12 472 576 472 C576 483.88 576 495.76 576 508 C588.21 508 600.42 508 613 508 C613 543.97 613 579.94 613 617 C302.8 617 -7.4 617 -327 617 C-327 581.03 -327 545.06 -327 508 C-314.79 508 -302.58 508 -290 508 C-290 484.24 -290 460.48 -290 436 C-278.12 436 -266.24 436 -254 436 C-254 400.03 -254 364.06 -254 327 C-242.78 327 -231.56 327 -220 327 C-220 278.82 -220 230.64 -220 181 C-207.46 181 -194.92 181 -182 181 C-182 145.69 -182 110.38 -182 74 C-172.1 73.67 -162.2 73.34 -152 73 C-149.525 72.505 -149.525 72.505 -147 72 C-146.67 48.57 -146.34 25.14 -146 1 C-134.12 1 -122.24 1 -110 1 C-110 24.43 -110 47.86 -110 72 C-121.88 72 -133.76 72 -146 72 C-146 83.88 -146 95.76 -146 108 C-134.12 108 -122.24 108 -110 108 C-110 96.45 -110 84.9 -110 73 C-98.12 73 -86.24 73 -74 73 C-74 60.79 -74 48.58 -74 36 C-49.58 36 -25.16 36 0 36 C0 24.12 0 12.24 0 0 Z " fill="#20599F" transform="translate(457,361)"/>
<path d="M0 0 C23.1 0 46.2 0 70 0 C70 11.55 70 23.1 70 35 C58.45 35 46.9 35 35 35 C35 46.88 35 58.76 35 71 C23.45 71 11.9 71 0 71 C0 106.64 0 142.28 0 179 C11.88 179 23.76 179 36 179 C36 155.24 36 131.48 36 107 C47.88 107 59.76 107 72 107 C72 95.12 72 83.24 72 71 C83.88 71 95.76 71 108 71 C108 119.84 108 168.68 108 219 C119.88 219 131.76 219 144 219 C144 242.1 144 265.2 144 289 C156.21 289 168.42 289 181 289 C181 266.23 181 243.46 181 220 C181.33 220 181.66 220 182 220 C182 243.1 182 266.2 182 290 C194.21 290 206.42 290 219 290 C219 301.88 219 313.76 219 326 C242.1 326 265.2 326 289 326 C289.33 337.88 289.66 349.76 290 362 C324.32 362.33 358.64 362.66 394 363 C394 374.88 394 386.76 394 399 C454.06 399 514.12 399 576 399 C576 410.88 576 422.76 576 435 C588.21 435 600.42 435 613 435 C613 470.97 613 506.94 613 544 C302.8 544 -7.4 544 -327 544 C-327 543.67 -327 543.34 -327 543 C-17.13 543 292.74 543 612 543 C612 507.69 612 472.38 612 436 C600.12 436 588.24 436 576 436 C576 459.1 576 482.2 576 506 C397.47 506 218.94 506 35 506 C35.33 494.78 35.66 483.56 36 472 C11.91 472 -12.18 472 -37 472 C-37 459.79 -37 447.58 -37 435 C-49.21 435 -61.42 435 -74 435 C-74 422.79 -74 410.58 -74 398 C-85.88 398 -97.76 398 -110 398 C-110 374.24 -110 350.48 -110 326 C-121.88 326 -133.76 326 -146 326 C-146 302.24 -146 278.48 -146 254 C-134.12 254 -122.24 254 -110 254 C-110 217.37 -110 180.74 -110 143 C-98.12 143 -86.24 143 -74 143 C-74 119.24 -74 95.48 -74 71 C-61.79 71 -49.58 71 -37 71 C-37 58.79 -37 46.58 -37 34 C-24.79 34 -12.58 34 0 34 C0 22.78 0 11.56 0 0 Z " fill="#76D4E7" transform="translate(457,434)"/>
<path d="M0 0 C23.1 0 46.2 0 70 0 C70 11.55 70 23.1 70 35 C58.45 35 46.9 35 35 35 C35 46.88 35 58.76 35 71 C23.45 71 11.9 71 0 71 C0 106.64 0 142.28 0 179 C11.88 179 23.76 179 36 179 C36 155.24 36 131.48 36 107 C47.88 107 59.76 107 72 107 C72 95.12 72 83.24 72 71 C83.88 71 95.76 71 108 71 C108 94.76 108 118.52 108 143 C96.45 143 84.9 143 73 143 C73.00523682 147.31618408 73.01047363 151.63236816 73.01586914 156.0793457 C73.03241148 170.31263389 73.04352468 184.54592245 73.05181217 198.77921772 C73.05697211 207.4119802 73.06400909 216.04473359 73.07543945 224.67749023 C73.08539548 232.20033419 73.09185563 239.72317156 73.09408849 247.24602193 C73.09539403 251.23062053 73.09847003 255.21520029 73.10573006 259.19979286 C73.11250474 262.94829246 73.11461399 266.6967654 73.11310768 270.44527054 C73.11338335 271.82274838 73.11537991 273.2002271 73.11920547 274.57769966 C73.12416522 276.45526107 73.12239228 278.3328367 73.12025452 280.21040344 C73.12163721 281.78805213 73.12163721 281.78805213 73.12304783 283.39757252 C73 286 73 286 72 289 C83.88 289 95.76 289 108 289 C108 301.21 108 313.42 108 326 C95.46 326 82.92 326 70 326 C70 313.79 70 301.58 70 289 C58.78 289 47.56 289 36 289 C35.67 265.9 35.34 242.8 35 219 C11.57 218.67 -11.86 218.34 -36 218 C-36 205.13 -36 192.26 -36 179 C-48.54 179 -61.08 179 -74 179 C-74 215.3 -74 251.6 -74 289 C-61.79 289 -49.58 289 -37 289 C-36.2233864 313.36625179 -35.90623512 337.6211305 -36 362 C-24.45 362 -12.9 362 -1 362 C-1 350.45 -1 338.9 -1 327 C-12.22 327 -23.44 327 -35 327 C-35 326.67 -35 326.34 -35 326 C-23.45 326 -11.9 326 0 326 C0 337.88 0 349.76 0 362 C11.55 362 23.1 362 35 362 C35 373.55 35 385.1 35 397 C18.0625 396.9375 18.0625 396.9375 12.71118164 396.90991211 C11.31917395 396.90699286 9.92716541 396.90444433 8.53515625 396.90234375 C7.80615112 396.89722778 7.077146 396.89211182 6.3260498 396.88684082 C4.55029924 396.88652989 2.77465792 396.93771485 1 397 C0.67 397.33 0.34 397.66 0 398 C11.55 398 23.1 398 35 398 C35 409.88 35 421.76 35 434 C59.42 434 83.84 434 109 434 C109 446.54 109 459.08 109 472 C133.09 472 157.18 472 182 472 C182 482.89 182 493.78 182 505 C133.49 505.33 84.98 505.66 35 506 C35.33 494.78 35.66 483.56 36 472 C11.91 472 -12.18 472 -37 472 C-37 459.79 -37 447.58 -37 435 C-49.21 435 -61.42 435 -74 435 C-74 422.79 -74 410.58 -74 398 C-85.88 398 -97.76 398 -110 398 C-110 374.24 -110 350.48 -110 326 C-121.88 326 -133.76 326 -146 326 C-146 302.24 -146 278.48 -146 254 C-134.12 254 -122.24 254 -110 254 C-110 217.37 -110 180.74 -110 143 C-98.12 143 -86.24 143 -74 143 C-74 119.24 -74 95.48 -74 71 C-61.79 71 -49.58 71 -37 71 C-37 58.79 -37 46.58 -37 34 C-24.79 34 -12.58 34 0 34 C0 22.78 0 11.56 0 0 Z " fill="#289ECD" transform="translate(457,434)"/>
<path d="M0 0 C11.55 0 23.1 0 35 0 C35 25.08 35 50.16 35 76 C46.88 76 58.76 76 71 76 C71.0309375 84.6315625 71.0309375 84.6315625 71.0625 93.4375 C71.071604 95.25564209 71.08070801 97.07378418 71.09008789 98.94702148 C71.09300711 100.38004482 71.09555566 101.81306898 71.09765625 103.24609375 C71.10277222 103.99669067 71.10788818 104.7472876 71.11315918 105.52062988 C71.11346992 107.34747601 71.06231113 109.17421683 71 111 C70.67 111.33 70.34 111.66 70 112 C58.78 112 47.56 112 36 112 C36 135.1 36 158.2 36 182 C47.88 182 59.76 182 72 182 C72 194.21 72 206.42 72 219 C84.21 219 96.42 219 109 219 C109 230.88 109 242.76 109 255 C121.54 255 134.08 255 147 255 C147 266.88 147 278.76 147 291 C176.04 291 205.08 291 235 291 C235 314.43 235 337.86 235 362 C323.11 362 411.22 362 502 362 C502 351.77 502 341.54 502 331 C502.33 331 502.66 331 503 331 C503 341.56 503 352.12 503 363 C324.8 363 146.6 363 -37 363 C-37 362.67 -37 362.34 -37 362 C11.18 362 59.36 362 109 362 C109 351.11 109 340.22 109 329 C84.91 329 60.82 329 36 329 C36 316.46 36 303.92 36 291 C11.58 291 -12.84 291 -38 291 C-38 279.12 -38 267.24 -38 255 C-49.55 255 -61.1 255 -73 255 C-73 253.35 -73 251.7 -73 250 C-72.67 251.32 -72.34 252.64 -72 254 C-60.78 254 -49.56 254 -38 254 C-38 242.45 -38 230.9 -38 219 C-49.55 219 -61.1 219 -73 219 C-73 207.12 -73 195.24 -73 183 C-74.38421065 184.15668501 -74.38421065 184.15668501 -74.11352539 187.32641602 C-74.11327435 188.80225555 -74.10771514 190.27810097 -74.09765625 191.75390625 C-74.09664917 192.44093628 -74.09564209 193.12796631 -74.09460449 193.83581543 C-74.08935776 196.41139384 -74.07539659 198.98694853 -74.0625 201.5625 C-74.041875 207.316875 -74.02125 213.07125 -74 219 C-85.55 219 -97.1 219 -109 219 C-109.7496989 194.6347856 -110.09711609 170.37613859 -110 146 C-122.21 146 -134.42 146 -147 146 C-147 109.7 -147 73.4 -147 36 C-134.46 36 -121.92 36 -109 36 C-109 48.87 -109 61.74 -109 75 C-103.88628906 74.98839844 -98.77257812 74.97679687 -93.50390625 74.96484375 C-90.2727852 74.95973689 -87.04166909 74.95492311 -83.81054688 74.95117188 C-78.6769915 74.94518384 -73.54345388 74.93808462 -68.40991211 74.92456055 C-64.273206 74.91373025 -60.13651892 74.90772286 -55.99979973 74.90512276 C-54.41807696 74.90326876 -52.83635529 74.89964864 -51.25464058 74.89426994 C-49.04677162 74.8870576 -46.83898227 74.88600914 -44.63110352 74.88647461 C-43.37201675 74.884254 -42.11292999 74.88203339 -40.81568909 74.87974548 C-38 75 -38 75 -37 76 C-36.90570658 78.17805719 -36.88257462 80.3592128 -36.88647461 82.53930664 C-36.88632858 83.22220261 -36.88618256 83.90509857 -36.8860321 84.60868835 C-36.88673124 86.87587614 -36.8945236 89.14298274 -36.90234375 91.41015625 C-36.90420793 92.97814387 -36.90563183 94.54613207 -36.90663147 96.11412048 C-36.91045666 100.24876503 -36.92028694 104.38337466 -36.93133545 108.51800537 C-36.94334418 113.47475717 -36.94795181 118.43152061 -36.95378876 123.38828278 C-36.96349871 130.92554616 -36.98265523 138.46273288 -37 146 C-25.78 146 -14.56 146 -3 146 C-3 158.21 -3 170.42 -3 183 C9.54 183 22.08 183 35 183 C35 170.79 35 158.58 35 146 C23.12 146 11.24 146 -1 146 C-0.67 97.82 -0.34 49.64 0 0 Z " fill="#39BBD5" transform="translate(530,577)"/>
<path d="M0 0 C73.26 0 146.52 0 222 0 C222 11.22 222 22.44 222 34 C248.07 34 274.14 34 301 34 C301 69.31 301 104.62 301 141 C317.83 141.495 317.83 141.495 335 142 C335.04010881 158.56048172 335.04010881 158.56048172 335.04882812 165.62109375 C335.05480523 170.43832501 335.06187534 175.25553726 335.07543945 180.07275391 C335.08630696 183.95660358 335.09228505 187.84043286 335.09487724 191.72429657 C335.09672452 193.20585196 335.10033175 194.68740624 335.10573006 196.16895294 C335.11299174 198.24449574 335.11398877 200.31995434 335.11352539 202.39550781 C335.115746 203.57687317 335.11796661 204.75823853 335.12025452 205.97540283 C335.01844545 208.53606687 334.69164653 210.55880519 334 213 C333.91908908 215.02468711 333.89241101 217.05184619 333.90234375 219.078125 C333.90556641 220.23828125 333.90878906 221.3984375 333.91210938 222.59375 C333.92048828 223.8003125 333.92886719 225.006875 333.9375 226.25 C333.94426758 228.08304687 333.94426758 228.08304687 333.95117188 229.953125 C333.96295185 232.96879946 333.97940147 235.98437498 334 239 C334.33 239 334.66 239 335 239 C335 240.98 335 242.96 335 245 C324.858775 250.0706125 312.33823423 246 301 246 C300.67 223.23 300.34 200.46 300 177 C287.46 176.67 274.92 176.34 262 176 C262 164.12 262 152.24 262 140 C248.8 140 235.6 140 222 140 C222 127.79 222 115.58 222 103 C197.91 103 173.82 103 149 103 C149 91.12 149 79.24 149 67 C144.62363281 67.03029297 140.24726562 67.06058594 135.73828125 67.09179688 C121.15395274 67.1925869 106.56961614 67.29216732 91.98527527 67.39115143 C83.15717154 67.45109656 74.32907085 67.51143281 65.50097656 67.57275391 C57.78924826 67.62631952 50.07751493 67.6790861 42.36577511 67.73096704 C38.29809608 67.75835842 34.23042024 67.78609943 30.16275024 67.81480408 C26.30172709 67.84203765 22.44069778 67.86817042 18.57966232 67.89359856 C16.55331687 67.90719046 14.52697847 67.9218227 12.50064087 67.9365387 C-2.66675928 68.03424916 -17.83120546 68 -33 68 C-33 91.76 -33 115.52 -33 140 C-57.42 140 -81.84 140 -107 140 C-107 152.21 -107 164.42 -107 177 C-118.88 177 -130.76 177 -143 177 C-143 188.55 -143 200.1 -143 212 C-154.88 212 -166.76 212 -179 212 C-179 200.12 -179 188.24 -179 176 C-167.12 176 -155.24 176 -143 176 C-143.33 152.57 -143.66 129.14 -144 105 C-155.55 104.67 -167.1 104.34 -179 104 C-179 103.67 -179 103.34 -179 103 C-167.45 103 -155.9 103 -144 103 C-144 91.45 -144 79.9 -144 68 C-143.67 68 -143.34 68 -143 68 C-143 79.55 -143 91.1 -143 103 C-124.685 103.495 -124.685 103.495 -106 104 C-106.33 92.12 -106.66 80.24 -107 68 C-94.46 68 -81.92 68 -69 68 C-69 56.78 -69 45.56 -69 34 C-46.23 34 -23.46 34 0 34 C0 22.78 0 11.56 0 0 Z " fill="#FCFBF3" transform="translate(490,257)"/>
<path d="M0 0 C11.55 0 23.1 0 35 0 C35 23.1 35 46.2 35 70 C321.11 70 607.22 70 902 70 C902 46.9 902 23.8 902 0 C913.88 0 925.76 0 938 0 C938 35.31 938 70.62 938 107 C628.46 107 318.92 107 0 107 C0 71.69 0 36.38 0 0 Z " fill="#132F5D" transform="translate(131,870)"/>
<path d="M0 0 C18.315 0.495 18.315 0.495 37 1 C37.33 12.55 37.66 24.1 38 36 C54.335 36.495 54.335 36.495 71 37 C71 71.98 71 106.96 71 143 C59.45 143 47.9 143 36 143 C36 155.21 36 167.42 36 180 C23.79 180 11.58 180 -1 180 C-1 191.88 -1 203.76 -1 216 C-12.22 216 -23.44 216 -35 216 C-35.495 198.675 -35.495 198.675 -36 181 C-53.82 180.505 -53.82 180.505 -72 180 C-72 191.55 -72 203.1 -72 215 C-83.22 215 -94.44 215 -106 215 C-106.33 203.78 -106.66 192.56 -107 181 C-119.21 180.67 -131.42 180.34 -144 180 C-144 168.12 -144 156.24 -144 144 C-119.91 144 -95.82 144 -71 144 C-71 108.36 -71 72.72 -71 36 C-59.45 36 -47.9 36 -36 36 C-36 48.21 -36 60.42 -36 73 C-24.45 73 -12.9 73 -1 73 C-1 84.55 -1 96.1 -1 108 C11.21 108 23.42 108 36 108 C36 84.57 36 61.14 36 37 C24.12 37 12.24 37 0 37 C0 24.79 0 12.58 0 0 Z " fill="#92E0EE" transform="translate(897,361)"/>
<path d="M0 0 C4.11847627 0.00640457 8.23695393 0.00685045 12.35543442 0.00802541 C20.09630621 0.01108974 27.83716327 0.01923444 35.57802868 0.0293749 C44.41535993 0.04069155 53.25269203 0.04608498 62.09002876 0.05107033 C80.21537251 0.06142333 98.34069615 0.07970493 116.46603012 0.10139394 C116.46603012 11.98139394 116.46603012 23.86139394 116.46603012 36.10139394 C140.55603012 36.10139394 164.64603012 36.10139394 189.46603012 36.10139394 C189.46603012 48.31139394 189.46603012 60.52139394 189.46603012 73.10139394 C202.66603012 73.10139394 215.86603012 73.10139394 229.46603012 73.10139394 C229.46603012 84.98139394 229.46603012 96.86139394 229.46603012 109.10139394 C242.00603012 109.10139394 254.54603012 109.10139394 267.46603012 109.10139394 C267.46603012 132.86139394 267.46603012 156.62139394 267.46603012 181.10139394 C241.44016262 181.20345616 215.47959944 180.84350289 189.46603012 180.10139394 C189.46603012 168.55139394 189.46603012 157.00139394 189.46603012 145.10139394 C165.70603012 145.10139394 141.94603012 145.10139394 117.46603012 145.10139394 C117.46603012 144.77139394 117.46603012 144.44139394 117.46603012 144.10139394 C141.22603012 144.10139394 164.98603012 144.10139394 189.46603012 144.10139394 C189.46603012 132.88139394 189.46603012 121.66139394 189.46603012 110.10139394 C177.91603012 110.10139394 166.36603012 110.10139394 154.46603012 110.10139394 C154.46603012 97.89139394 154.46603012 85.68139394 154.46603012 73.10139394 C117.50603012 73.10139394 80.54603012 73.10139394 42.46603012 73.10139394 C42.46603012 61.22139394 42.46603012 49.34139394 42.46603012 37.10139394 C6.82603012 37.10139394 -28.81396988 37.10139394 -65.53396988 37.10139394 C-65.53396988 25.22139394 -65.53396988 13.34139394 -65.53396988 1.10139394 C-43.67142612 0.31631999 -21.8734655 -0.0399988 0 0 Z " fill="#92E0EF" transform="translate(522.5339698791504,323.8986060619354)"/>
<path d="M0 0 C11.88 0 23.76 0 36 0 C36 11.88 36 23.76 36 36 C47.22 36 58.44 36 70 36 C70 48.21 70 60.42 70 73 C94.42 73 118.84 73 144 73 C144 84.55 144 96.1 144 108 C168.75 108 193.5 108 219 108 C219 120.54 219 133.08 219 146 C248.37 146 277.74 146 308 146 C308 156.89 308 167.78 308 179 C396.11 179 484.22 179 575 179 C575 168.77 575 158.54 575 148 C575.33 148 575.66 148 576 148 C576 158.56 576 169.12 576 180 C397.8 180 219.6 180 36 180 C36 179.67 36 179.34 36 179 C84.18 179 132.36 179 182 179 C182 168.11 182 157.22 182 146 C157.91 146 133.82 146 109 146 C109 133.46 109 120.92 109 108 C84.58 108 60.16 108 35 108 C35 96.12 35 84.24 35 72 C23.45 72 11.9 72 0 72 C0 70.35 0 68.7 0 67 C0.33 68.32 0.66 69.64 1 71 C12.22 71 23.44 71 35 71 C35 59.45 35 47.9 35 36 C23.45 36 11.9 36 0 36 C0 24.12 0 12.24 0 0 Z " fill="#6FD4E8" transform="translate(457,760)"/>
<path d="M0 0 C34.32 0 68.64 0 104 0 C104.66 23.76 105.32 47.52 106 72 C117.88 72.33 129.76 72.66 142 73 C142 96.43 142 119.86 142 144 C129.79 144 117.58 144 105 144 C105 132.45 105 120.9 105 109 C93.45 109 81.9 109 70 109 C70 96.79 70 84.58 70 72 C58.45 72 46.9 72 35 72 C35 107.64 35 143.28 35 180 C23.12 180 11.24 180 -1 180 C-1 156.57 -1 133.14 -1 109 C-0.67 109 -0.34 109 0 109 C0 131.77 0 154.54 0 178 C11.22 177.67 22.44 177.34 34 177 C33.01 175.02 33.01 175.02 32 173 C31.75708008 170.0390625 31.75708008 170.0390625 31.76953125 166.625 C31.77146484 165.39265625 31.77339844 164.1603125 31.77539062 162.890625 C31.78763672 161.60671875 31.79988281 160.3228125 31.8125 159 C31.81314453 157.71609375 31.81378906 156.4321875 31.81445312 155.109375 C31.8596802 145.5011335 31.8596802 145.5011335 32.49624634 143.22772217 C33.16755505 140.25903051 33.16527537 137.43907178 33.20532227 134.39550781 C33.21522186 133.74143448 33.22512146 133.08736115 33.23532104 132.41346741 C33.26680851 130.26005626 33.29164272 128.10662308 33.31640625 125.953125 C33.33698681 124.45667968 33.35798357 122.96024004 33.37937927 121.46380615 C33.43448618 117.53147991 33.48394547 113.59910219 33.53222656 109.66668701 C33.58252486 105.65144284 33.63816739 101.63627311 33.69335938 97.62109375 C33.80080168 89.74745884 33.90227736 81.87376151 34 74 C32.56164795 74.00785522 32.56164795 74.00785522 31.09423828 74.01586914 C27.54216441 74.03394679 23.99009463 74.04544215 20.43798828 74.05493164 C18.89956987 74.05996552 17.36115625 74.06679308 15.82275391 74.07543945 C13.61359474 74.08754639 11.40449874 74.09323769 9.1953125 74.09765625 C8.16085495 74.10539818 8.16085495 74.10539818 7.10549927 74.11329651 C2.22774341 74.11387171 2.22774341 74.11387171 0 73 C0 48.91 0 24.82 0 0 Z " fill="#FBFBF3" transform="translate(791,325)"/>
<path d="M0 0 C4.11847627 0.00640457 8.23695393 0.00685045 12.35543442 0.00802541 C20.09630621 0.01108974 27.83716327 0.01923444 35.57802868 0.0293749 C44.41535993 0.04069155 53.25269203 0.04608498 62.09002876 0.05107033 C80.21537251 0.06142333 98.34069615 0.07970493 116.46603012 0.10139394 C116.46603012 11.98139394 116.46603012 23.86139394 116.46603012 36.10139394 C140.55603012 36.10139394 164.64603012 36.10139394 189.46603012 36.10139394 C189.46603012 48.31139394 189.46603012 60.52139394 189.46603012 73.10139394 C189.13603012 73.10139394 188.80603012 73.10139394 188.46603012 73.10139394 C188.46603012 61.55139394 188.46603012 50.00139394 188.46603012 38.10139394 C165.36603012 38.10139394 142.26603012 38.10139394 118.46603012 38.10139394 C118.46603012 48.99139394 118.46603012 59.88139394 118.46603012 71.10139394 C117.80603012 71.10139394 117.14603012 71.10139394 116.46603012 71.10139394 C116.46603012 71.76139394 116.46603012 72.42139394 116.46603012 73.10139394 C92.04603012 73.10139394 67.62603012 73.10139394 42.46603012 73.10139394 C42.46603012 61.22139394 42.46603012 49.34139394 42.46603012 37.10139394 C6.82603012 37.10139394 -28.81396988 37.10139394 -65.53396988 37.10139394 C-65.53396988 25.22139394 -65.53396988 13.34139394 -65.53396988 1.10139394 C-43.67142612 0.31631999 -21.8734655 -0.0399988 0 0 Z " fill="#93E0EF" transform="translate(522.5339698791504,323.8986060619354)"/>
<path d="M0 0 C88.44 0 176.88 0 268 0 C267.67 10.89 267.34 21.78 267 33 C178.89 33 90.78 33 0 33 C0 22.11 0 11.22 0 0 Z " fill="#32B1D2" transform="translate(765,906)"/>
<path d="M0 0 C72.93 0 145.86 0 221 0 C221 10.89 221 21.78 221 33 C148.07 33 75.14 33 0 33 C0 22.11 0 11.22 0 0 Z " fill="#14305E" transform="translate(491,223)"/>
<path d="M0 0 C11.88 0 23.76 0 36 0 C36 23.43 36 46.86 36 71 C24.12 71 12.24 71 0 71 C0 106.64 0 142.28 0 179 C-11.88 179 -23.76 179 -36 179 C-36 144.02 -36 109.04 -36 73 C-21.15 72.505 -21.15 72.505 -6 72 C-3.525 71.505 -3.525 71.505 -1 71 C-0.67 47.57 -0.34 24.14 0 0 Z " fill="#16315E" transform="translate(311,362)"/>
<path d="M0 0 C60.06 0 120.12 0 182 0 C182 11.55 182 23.1 182 35 C121.94 35 61.88 35 0 35 C0 23.45 0 11.9 0 0 Z " fill="#17315E" transform="translate(851,833)"/>
<path d="M0 0 C11.55 0 23.1 0 35 0 C35 23.76 35 47.52 35 72 C23.12 72 11.24 72 -1 72 C-1 83.55 -1 95.1 -1 107 C-12.22 107 -23.44 107 -35 107 C-35.33 95.78 -35.66 84.56 -36 73 C-54.315 72.505 -54.315 72.505 -73 72 C-73 60.12 -73 48.24 -73 36 C-48.91 36 -24.82 36 0 36 C0 24.12 0 12.24 0 0 Z " fill="#90DDEC" transform="translate(826,469)"/>
<path d="M0 0 C23.1 0 46.2 0 70 0 C70.33 11.55 70.66 23.1 71 35 C104.99 35.33 138.98 35.66 174 36 C174 47.88 174 59.76 174 72 C139.68 72 105.36 72 70 72 C70 60.12 70 48.24 70 36 C46.9 36 23.8 36 0 36 C0 24.12 0 12.24 0 0 Z " fill="#18325E" transform="translate(676,761)"/>
<path d="M0 0 C11.88 0 23.76 0 36 0 C36 47.85 36 95.7 36 145 C24.12 145 12.24 145 0 145 C0 97.15 0 49.3 0 0 Z " fill="#13305E" transform="translate(238,543)"/>
<path d="M0 0 C11.55 0 23.1 0 35 0 C35 48.51 35 97.02 35 147 C23.45 147 11.9 147 0 147 C0 98.49 0 49.98 0 0 Z " fill="#14305E" transform="translate(566,505)"/>
<path d="M0 0 C23.1 0 46.2 0 70 0 C70 11.55 70 23.1 70 35 C58.45 35 46.9 35 35 35 C35 46.88 35 58.76 35 71 C10.91615223 71.77612796 -12.9190172 72.04699925 -37 71 C-37 58.79 -37 46.58 -37 34 C-24.79 34 -12.58 34 0 34 C0 22.78 0 11.56 0 0 Z " fill="#2478B9" transform="translate(457,434)"/>
<path d="M0 0 C11.22 0 22.44 0 34 0 C34 34.98 34 69.96 34 106 C22.78 106 11.56 106 0 106 C0 71.02 0 36.04 0 0 Z " fill="#193561" transform="translate(934,398)"/>
<path d="M0 0 C10.89 0 21.78 0 33 0 C33 35.64 33 71.28 33 108 C22.11 108 11.22 108 0 108 C0 72.36 0 36.72 0 0 Z " fill="#14305E" transform="translate(204,688)"/>
<path d="M0 0 C35.31 0 70.62 0 107 0 C106.67 10.89 106.34 21.78 106 33 C71.02 33 36.04 33 0 33 C0 22.11 0 11.22 0 0 Z " fill="#237DBE" transform="translate(926,906)"/>
<path d="M0 0 C0.33 0 0.66 0 1 0 C1 11.22 1 22.44 1 34 C12.55 34 24.1 34 36 34 C36 46.21 36 58.42 36 71 C24.12 71 12.24 71 0 71 C0 82.55 0 94.1 0 106 C-11.88 106 -23.76 106 -36 106 C-36 94.12 -36 82.24 -36 70 C-24.12 70 -12.24 70 0 70 C0 46.9 0 23.8 0 0 Z " fill="#93DAEB" transform="translate(347,363)"/>
<path d="M0 0 C26.07 0 52.14 0 79 0 C79 10.89 79 21.78 79 33 C52.93 33 26.86 33 0 33 C0 22.11 0 11.22 0 0 Z " fill="#143361" transform="translate(713,257)"/>
<path d="M0 0 C11.88 0 23.76 0 36 0 C36 23.43 36 46.86 36 71 C24.12 71 12.24 71 0 71 C0 47.57 0 24.14 0 0 Z " fill="#78D9EC" transform="translate(421,688)"/>
<path d="M0 0 C11.55 0 23.1 0 35 0 C35 23.76 35 47.52 35 72 C23.45 72 11.9 72 0 72 C0 48.24 0 24.48 0 0 Z " fill="#16305C" transform="translate(826,469)"/>
<path d="M0 0 C11.88 0 23.76 0 36 0 C36 22.77 36 45.54 36 69 C24.12 69 12.24 69 0 69 C0 46.23 0 23.46 0 0 Z " fill="#15305C" transform="translate(602,654)"/>
<path d="M0 0 C11.6714276 0 23.34871293 0.31463017 35 1 C35 24.1 35 47.2 35 71 C23.45 71 11.9 71 0 71 C0 47.57 0 24.14 0 0 Z " fill="#15315F" transform="translate(167,797)"/>
<path d="M0 0 C23.76 0 47.52 0 72 0 C72 11.22 72 22.44 72 34 C48.24 34 24.48 34 0 34 C0 22.78 0 11.56 0 0 Z " fill="#16305C" transform="translate(640,434)"/>
<path d="M0 0 C33.66 0.495 33.66 0.495 68 1 C68 11.89 68 22.78 68 34 C45.56 34 23.12 34 0 34 C0 22.78 0 11.56 0 0 Z " fill="#132F5C" transform="translate(792,290)"/>
<path d="M0 0 C22.11 0 44.22 0 67 0 C67 10.89 67 21.78 67 33 C44.89 33 22.78 33 0 33 C0 22.11 0 11.22 0 0 Z " fill="#14305D" transform="translate(422,257)"/>
<path d="M0 0 C11.88 0 23.76 0 36 0 C36 11.88 36 23.76 36 36 C47.22 36 58.44 36 70 36 C70 48.21 70 60.42 70 73 C94.42 73 118.84 73 144 73 C144 84.88 144 96.76 144 109 C143.67 109 143.34 109 143 109 C143 97.45 143 85.9 143 74 C118.58 74 94.16 74 69 74 C69 62.12 69 50.24 69 38 C58.44 38 47.88 38 37 38 C37 60.77 37 83.54 37 107 C60.76 107 84.52 107 109 107 C109 107.33 109 107.66 109 108 C84.58 108 60.16 108 35 108 C35 96.12 35 84.24 35 72 C23.45 72 11.9 72 0 72 C0 70.35 0 68.7 0 67 C0.33 68.32 0.66 69.64 1 71 C12.22 71 23.44 71 35 71 C35 59.45 35 47.9 35 36 C23.45 36 11.9 36 0 36 C0 24.12 0 12.24 0 0 Z " fill="#77DAED" transform="translate(457,760)"/>
<path d="M0 0 C11.88 0 23.76 0 36 0 C36 11.88 36 23.76 36 36 C47.88 36 59.76 36 72 36 C72 36.66 72 37.32 72 38 C47.97159834 38.13950037 24.01909179 37.76251085 0 37 C0 24.79 0 12.58 0 0 Z " fill="#289ECB" transform="translate(566,760)"/>
<path d="M0 0 C12.54 0 25.08 0 38 0 C38 11.88 38 23.76 38 36 C25.46 36 12.92 36 0 36 C0 24.12 0 12.24 0 0 Z " fill="#17305C" transform="translate(638,724)"/>
<path d="M0 0 C12.87 0 25.74 0 39 0 C39 11.55 39 23.1 39 35 C26.13 35 13.26 35 0 35 C0 23.45 0 11.9 0 0 Z " fill="#1B315C" transform="translate(713,469)"/>
<path d="M0 0 C12.21 0 24.42 0 37 0 C37 11.88 37 23.76 37 36 C24.79 36 12.58 36 0 36 C0 24.12 0 12.24 0 0 Z " fill="#18325E" transform="translate(896,505)"/>
<path d="M0 0 C12.21 0 24.42 0 37 0 C37 11.88 37 23.76 37 36 C24.79 36 12.58 36 0 36 C0 24.12 0 12.24 0 0 Z " fill="#16305D" transform="translate(753,505)"/>
<path d="M0 0 C12.21 0 24.42 0 37 0 C37 11.88 37 23.76 37 36 C24.79 36 12.58 36 0 36 C0 24.12 0 12.24 0 0 Z " fill="#94E1EE" transform="translate(420,361)"/>
<path d="M0 0 C12.21 0 24.42 0 37 0 C37 11.88 37 23.76 37 36 C24.79 36 12.58 36 0 36 C0 24.12 0 12.24 0 0 Z " fill="#F8FBF3" transform="translate(602,361)"/>
<path d="M0 0 C11.55 0 23.1 0 35 0 C36.53297297 3.06594594 36.12131455 6.27111853 36.09765625 9.6328125 C36.0962413 10.38464813 36.09482635 11.13648376 36.09336853 11.91110229 C36.08776465 14.3157751 36.07521157 16.72035527 36.0625 19.125 C36.0574855 20.75390491 36.0529225 22.38281127 36.04882812 24.01171875 C36.03779397 28.00784827 36.02052679 32.00390842 36 36 C31.03377651 36.02465098 26.06758834 36.04283649 21.10131836 36.05493164 C19.41055684 36.0599719 17.71979971 36.06680405 16.02905273 36.07543945 C13.60399293 36.08751857 11.17899056 36.09323123 8.75390625 36.09765625 C7.61327477 36.10539818 7.61327477 36.10539818 6.44960022 36.11329651 C4.6326743 36.11349238 2.81586873 36.06197277 1 36 C0 35 0 35 -0.11352539 31.67358398 C-0.11327435 30.19774445 -0.10771514 28.72189903 -0.09765625 27.24609375 C-0.09664917 26.55906372 -0.09564209 25.87203369 -0.09460449 25.16418457 C-0.08935776 22.58860616 -0.07539659 20.01305147 -0.0625 17.4375 C-0.041875 11.683125 -0.02125 5.92875 0 0 Z " fill="#17325F" transform="translate(348,325)"/>
<path d="M0 0 C11.88 0.33 23.76 0.66 36 1 C36 12.55 36 24.1 36 36 C24.12 36 12.24 36 0 36 C0 24.12 0 12.24 0 0 Z " fill="#14305C" transform="translate(897,361)"/>
<path d="M0 0 C11.88 0 23.76 0 36 0 C36 11.55 36 23.1 36 35 C24.12 35 12.24 35 0 35 C0 23.45 0 11.9 0 0 Z " fill="#142F5D" transform="translate(602,469)"/>
<path d="M0 0 C11.55 0 23.1 0 35 0 C35 11.88 35 23.76 35 36 C23.45 36 11.9 36 0 36 C0 24.12 0 12.24 0 0 Z " fill="#2E97CC" transform="translate(566,469)"/>
<path d="M0 0 C12.21 0 24.42 0 37 0 C37 11.22 37 22.44 37 34 C31.89130189 34.02290896 26.78278074 34.04283601 21.67407227 34.05493164 C19.93480832 34.05997204 18.19554864 34.0668043 16.45629883 34.07543945 C13.96174063 34.08751792 11.46723827 34.09323108 8.97265625 34.09765625 C8.19036148 34.10281754 7.40806671 34.10797882 6.60206604 34.11329651 C4.73432886 34.11349226 2.86670796 34.06199694 1 34 C0 33 0 33 -0.11352539 29.85717773 C-0.11327441 28.46597304 -0.10771709 27.07476209 -0.09765625 25.68359375 C-0.09664917 25.03588013 -0.09564209 24.3881665 -0.09460449 23.7208252 C-0.08935843 21.29303221 -0.07539725 18.86526439 -0.0625 16.4375 C-0.041875 11.013125 -0.02125 5.58875 0 0 Z " fill="#15325F" transform="translate(384,291)"/>
<path d="M0 0 C11.22 0 22.44 0 34 0 C34.33 11.88 34.66 23.76 35 36 C23.45 36 11.9 36 0 36 C0 24.12 0 12.24 0 0 Z " fill="#13305C" transform="translate(861,325)"/>
<path d="M0 0 C11.55 0 23.1 0 35 0 C35 11.55 35 23.1 35 35 C23.45 35 11.9 35 0 35 C0 23.45 0 11.9 0 0 Z " fill="#F9F9F3" transform="translate(311,434)"/>
<path d="M0 0 C11.22 0 22.44 0 34 0 C34.02290956 4.96628434 34.04283643 9.93238663 34.05493164 14.89868164 C34.0599719 16.58944316 34.06680405 18.28020029 34.07543945 19.97094727 C34.08751857 22.39600707 34.09323123 24.82100944 34.09765625 27.24609375 C34.10281754 28.00651474 34.10797882 28.76693573 34.11329651 29.55039978 C34.11349238 31.3673257 34.06197277 33.18413127 34 35 C33 36 33 36 29.85717773 36.11352539 C28.46597304 36.11327441 27.07476209 36.10771709 25.68359375 36.09765625 C25.03588013 36.09664917 24.3881665 36.09564209 23.7208252 36.09460449 C21.29303221 36.08935843 18.86526439 36.07539725 16.4375 36.0625 C8.3009375 36.0315625 8.3009375 36.0315625 0 36 C0 24.12 0 12.24 0 0 Z " fill="#95E0EE" transform="translate(792,361)"/>
<path d="M0 0 C0.22614147 11.6839759 -0.45727678 23.33145085 -1 35 C-12.22 35 -23.44 35 -35 35 C-35 23.78 -35 12.56 -35 1 C-29.781875 0.835 -24.56375 0.67 -19.1875 0.5 C-16.72253052 0.42168945 -16.72253052 0.42168945 -14.20776367 0.34179688 C-12.91588135 0.30119141 -11.62399902 0.26058594 -10.29296875 0.21875 C-9.27958435 0.1863623 -9.27958435 0.1863623 -8.24572754 0.15332031 C-5.49542918 0.0673255 -2.75188363 0 0 0 Z " fill="#34B7D3" transform="translate(850,833)"/>
<path d="M0 0 C11.22 0 22.44 0 34 0 C34 11.55 34 23.1 34 35 C23.11 35 12.22 35 1 35 C0.505 17.675 0.505 17.675 0 0 Z " fill="#132F5B" transform="translate(861,541)"/>
<path d="M0 0 C11.22 0 22.44 0 34 0 C34 11.55 34 23.1 34 35 C23.11 35 12.22 35 1 35 C0.505 17.675 0.505 17.675 0 0 Z " fill="#142F5C" transform="translate(790,541)"/>
<path d="M0 0 C11.22 0 22.44 0 34 0 C34 11.22 34 22.44 34 34 C23.11 34 12.22 34 1 34 C0.02459083 30.09836331 -0.11461387 27.04887271 -0.09765625 23.046875 C-0.09515869 21.83870117 -0.09266113 20.63052734 -0.09008789 19.38574219 C-0.08098389 17.85594727 -0.07187988 16.32615234 -0.0625 14.75 C-0.041875 9.8825 -0.02125 5.015 0 0 Z " fill="#39BCD6" transform="translate(457,797)"/>
<path d="M0 0 C0.33 0 0.66 0 1 0 C1 10.89 1 21.78 1 33 C73.93 33 146.86 33 222 33 C222.33 32.01 222.66 31.02 223 30 C225.99127271 41.96509084 223.3735659 54.67232546 223 67 C249.07 67 275.14 67 302 67 C302 78.22 302 89.44 302 101 C324.44 101 346.88 101 370 101 C370 90.11 370 79.22 370 68 C347.89 68 325.78 68 303 68 C303 67.67 303 67.34 303 67 C325.44 67 347.88 67 371 67 C371 78.55 371 90.1 371 102 C347.9 102 324.8 102 301 102 C301 90.78 301 79.56 301 68 C274.93 68 248.86 68 222 68 C222 56.78 222 45.56 222 34 C148.74 34 75.48 34 0 34 C0 45.22 0 56.44 0 68 C-34.98 68 -69.96 68 -106 68 C-106 67.67 -106 67.34 -106 67 C-81.36160693 65.90611786 -56.7758856 66.02624872 -32.125 66.4375 C-31.35635494 66.45031384 -30.58770988 66.46312767 -29.79577255 66.4763298 C-20.19689979 66.63758187 -10.59851003 66.8170372 -1 67 C-1 56.11 -1 45.22 -1 34 C-3.31 34 -5.62 34 -8 34 C-8 33.67 -8 33.34 -8 33 C-5.36 33 -2.72 33 0 33 C0 22.11 0 11.22 0 0 Z " fill="#ADB3C0" transform="translate(490,223)"/>
<path d="M0 0 C5.754375 -0.020625 11.50875 -0.04125 17.4375 -0.0625 C19.25564209 -0.071604 21.07378418 -0.08070801 22.94702148 -0.09008789 C24.38004482 -0.09300711 25.81306898 -0.09555566 27.24609375 -0.09765625 C27.99669067 -0.10277222 28.7472876 -0.10788818 29.52062988 -0.11315918 C31.34747601 -0.11346992 33.17421683 -0.06231113 35 0 C36 1 36 1 36.11352539 4.32641602 C36.11336629 5.80225556 36.10767314 7.27810069 36.09765625 8.75390625 C36.0962413 9.52935287 36.09482635 10.3047995 36.09336853 11.10374451 C36.08775345 13.59003494 36.07519846 16.0762366 36.0625 18.5625 C36.05748694 20.24413933 36.0529237 21.92578006 36.04882812 23.60742188 C36.03862832 27.73834329 36.01905605 31.86907182 36 36 C46.89 35.67 57.78 35.34 69 35 C69.33 35.66 69.66 36.32 70 37 C58.45 37 46.9 37 35 37 C35 72.64 35 108.28 35 145 C23.12 145 11.24 145 -1 145 C-1 121.57 -1 98.14 -1 74 C-0.67 74 -0.34 74 0 74 C0 96.77 0 119.54 0 143 C11.22 142.67 22.44 142.34 34 142 C33.01 140.02 33.01 140.02 32 138 C31.75708008 135.0390625 31.75708008 135.0390625 31.76953125 131.625 C31.77146484 130.39265625 31.77339844 129.1603125 31.77539062 127.890625 C31.78763672 126.60671875 31.79988281 125.3228125 31.8125 124 C31.81314453 122.71609375 31.81378906 121.4321875 31.81445312 120.109375 C31.8596802 110.5011335 31.8596802 110.5011335 32.49624634 108.22772217 C33.16755505 105.25903051 33.16527537 102.43907178 33.20532227 99.39550781 C33.21522186 98.74143448 33.22512146 98.08736115 33.23532104 97.41346741 C33.26680851 95.26005626 33.29164272 93.10662308 33.31640625 90.953125 C33.33698681 89.45667968 33.35798357 87.96024004 33.37937927 86.46380615 C33.43448618 82.53147991 33.48394547 78.59910219 33.53222656 74.66668701 C33.58252486 70.65144284 33.63816739 66.63627311 33.69335938 62.62109375 C33.80080168 54.74745884 33.90227736 46.87376151 34 39 C32.56164795 39.00785522 32.56164795 39.00785522 31.09423828 39.01586914 C27.54216441 39.03394679 23.99009463 39.04544215 20.43798828 39.05493164 C18.89956987 39.05996552 17.36115625 39.06679308 15.82275391 39.07543945 C13.61359474 39.08754639 11.40449874 39.09323769 9.1953125 39.09765625 C8.16085495 39.10539818 8.16085495 39.10539818 7.10549927 39.11329651 C2.22774341 39.11387171 2.22774341 39.11387171 0 38 C0 25.46 0 12.92 0 0 Z M1 1 C1 12.88 1 24.76 1 37 C9.1365625 37.0309375 9.1365625 37.0309375 17.4375 37.0625 C20.00809204 37.07615601 20.00809204 37.07615601 22.63061523 37.09008789 C23.98160727 37.09300716 25.33260019 37.09555569 26.68359375 37.09765625 C27.39100708 37.10277222 28.09842041 37.10788818 28.82727051 37.11315918 C30.55192617 37.11347032 32.27646838 37.06225761 34 37 C35.38421065 35.84331499 35.38421065 35.84331499 35.11352539 32.67358398 C35.11336629 31.19774444 35.10767314 29.72189931 35.09765625 28.24609375 C35.09553383 27.08292381 35.09553383 27.08292381 35.09336853 25.89625549 C35.08775345 23.40996506 35.07519846 20.9237634 35.0625 18.4375 C35.05748694 16.75586067 35.0529237 15.07421994 35.04882812 13.39257812 C35.03862832 9.26165671 35.01905605 5.13092818 35 1 C23.78 1 12.56 1 1 1 Z " fill="#E8FDFC" transform="translate(791,360)"/>
<path d="M0 0 C35.64 0 71.28 0 108 0 C108 11.88 108 23.76 108 36 C107.67 36 107.34 36 107 36 C107 24.45 107 12.9 107 1 C72.02 1 37.04 1 1 1 C1 13.21 1 25.42 1 38 C-23.09 38 -47.18 38 -72 38 C-71.67 43.94 -71.34 49.88 -71 56 C-71.07211463 59.26144209 -71.16302632 62.39441326 -71.4375 65.625 C-71.48970703 66.35460937 -71.54191406 67.08421875 -71.59570312 67.8359375 C-71.72033008 69.5580554 -71.85841464 71.27919335 -72 73 C-72.66 73 -73.32 73 -74 73 C-74 60.79 -74 48.58 -74 36 C-49.58 36 -25.16 36 0 36 C0 24.12 0 12.24 0 0 Z " fill="#164B82" transform="translate(457,361)"/>
<path d="M0 0 C12.54 0 25.08 0 38 0 C38 11.55 38 23.1 38 35 C67.04 35 96.08 35 126 35 C126 47.21 126 59.42 126 72 C125.67 72 125.34 72 125 72 C125 60.45 125 48.9 125 37 C96.62 37 68.24 37 39 37 C39 47.56 39 58.12 39 69 C38.67 69 38.34 69 38 69 C37.67 57.78 37.34 46.56 37 35 C25.45 35 13.9 35 2 35 C2 34.67 2 34.34 2 34 C13.22 34 24.44 34 36 34 C36 23.11 36 12.22 36 1 C33.215625 1.185625 30.43125 1.37125 27.5625 1.5625 C18.29838191 2.11297189 9.23900295 1.7689311 0 1 C0 0.67 0 0.34 0 0 Z " fill="#30B2CC" transform="translate(639,833)"/>
<path d="M0 0 C11.55 0 23.1 0 35 0 C35 48.51 35 97.02 35 147 C24.11 147 13.22 147 2 147 C2 146.67 2 146.34 2 146 C12.56 146 23.12 146 34 146 C34 98.48 34 50.96 34 2 C32.35 2.33 30.7 2.66 29 3 C28.34 2.67 27.68 2.34 27 2 C18.42 2 9.84 2 1 2 C1 48.2 1 94.4 1 142 C0.67 142 0.34 142 0 142 C0 95.14 0 48.28 0 0 Z " fill="#052550" transform="translate(566,505)"/>
<path d="M0 0 C12.54 0 25.08 0 38 0 C38 11.88 38 23.76 38 36 C25.46 36 12.92 36 0 36 C0 24.12 0 12.24 0 0 Z M36 1 C35.67 1.66 35.34 2.32 35 3 C34.13197754 2.98952637 33.26395508 2.97905273 32.36962891 2.96826172 C29.15300472 2.93420284 25.93647233 2.90911233 22.71972656 2.89013672 C21.32679219 2.88007123 19.93387898 2.86641766 18.54101562 2.84912109 C16.5404564 2.8248978 14.53974385 2.81459186 12.5390625 2.8046875 C11.33459473 2.79421387 10.13012695 2.78374023 8.88916016 2.77294922 C5.87158505 2.69539186 5.87158505 2.69539186 4 5 C3.79484695 7.37355613 3.79484695 7.37355613 3.9375 10 C4.09809264 14.80381471 4.09809264 14.80381471 3 17 C2.9019269 19.86431142 2.86097351 22.69875884 2.875 25.5625 C2.87113281 26.35591797 2.86726562 27.14933594 2.86328125 27.96679688 C2.49559775 31.7914162 2.49559775 31.7914162 4 35 C6.44803767 35.0884283 8.86844794 35.11535972 11.31640625 35.09765625 C12.28797668 35.09614563 12.28797668 35.09614563 13.2791748 35.09460449 C15.70696779 35.08935843 18.13473561 35.07539725 20.5625 35.0625 C25.986875 35.041875 31.41125 35.02125 37 35 C37 23.78 37 12.56 37 1 C36.67 1 36.34 1 36 1 Z " fill="#3F5578" transform="translate(638,724)"/>
<path d="M0 0 C16.335 0.495 16.335 0.495 33 1 C33 35.32 33 69.64 33 105 C32.67 105 32.34 105 32 105 C32 71.01 32 37.02 32 2 C22.76 2 13.52 2 4 2 C4 2.66 4 3.32 4 4 C3.34 4 2.68 4 2 4 C2.00523682 4.79092041 2.01047363 5.58184082 2.01586914 6.39672852 C2.14221011 29.20687041 1.87800706 52.00607393 1.5 74.8125 C1.48804218 75.53416981 1.47608437 76.25583961 1.46376419 76.9993782 C1.31417049 85.99967258 1.15945873 94.99987471 1 104 C2.32 104.33 3.64 104.66 5 105 C2.525 105.495 2.525 105.495 0 106 C0 71.02 0 36.04 0 0 Z " fill="#102647" transform="translate(934,398)"/>
<path d="M0 0 C0 11.55 0 23.1 0 35 C-0.33 35 -0.66 35 -1 35 C-1 24.11 -1 13.22 -1 2 C-1.99 2.33 -2.98 2.66 -4 3 C-13.57 2.67 -23.14 2.34 -33 2 C-33 36.65 -33 71.3 -33 107 C-33.66 107 -34.32 107 -35 107 C-35 72.02 -35 37.04 -35 1 C-5 0 -5 0 0 0 Z " fill="#213353" transform="translate(310,434)"/>
<path d="M0 0 C0.33 0 0.66 0 1 0 C1 23.76 1 47.52 1 72 C-10.55 72 -22.1 72 -34 72 C-34 71.67 -34 71.34 -34 71 C-19.15 70.505 -19.15 70.505 -4 70 C-4.08378906 66.73738281 -4.16757812 63.47476563 -4.25390625 60.11328125 C-4.33133705 56.94933048 -4.40684999 53.78533934 -4.48217773 50.62133789 C-4.53550981 48.42434816 -4.59083207 46.2274058 -4.64819336 44.03051758 C-4.7303498 40.87070934 -4.80532111 37.71079929 -4.87890625 34.55078125 C-4.90594131 33.57039383 -4.93297638 32.59000641 -4.96083069 31.57991028 C-4.98092697 30.65933334 -5.00102325 29.73875641 -5.02172852 28.7902832 C-5.04171402 27.9842012 -5.06169952 27.1781192 -5.08229065 26.34761047 C-4.99324257 23.80722226 -4.56095485 21.47560656 -4 19 C-3.34 19.33 -2.68 19.66 -2 20 C-2.33 20.99 -2.66 21.98 -3 23 C-2.34 23 -1.68 23 -1 23 C-0.67 15.41 -0.34 7.82 0 0 Z " fill="#2E4165" transform="translate(860,469)"/>
<path d="M0 0 C0.66 0 1.32 0 2 0 C2.19956481 3.47858216 2.38240361 6.9578599 2.5625 10.4375 C2.61857422 11.41138672 2.67464844 12.38527344 2.73242188 13.38867188 C2.78076172 14.35224609 2.82910156 15.31582031 2.87890625 16.30859375 C2.9260376 17.18314209 2.97316895 18.05769043 3.02172852 18.95874023 C2.99294963 22.9868141 2.4448377 26.99646072 2 31 C26.75 31 51.5 31 77 31 C77 21.1 77 11.2 77 1 C77.33 1 77.66 1 78 1 C78.33 11.56 78.66 22.12 79 33 C52.93 33 26.86 33 0 33 C0 22.11 0 11.22 0 0 Z " fill="#0B1D3F" transform="translate(713,257)"/>
<path d="M0 0 C34.98 0 69.96 0 106 0 C104 3 104 3 101.625 3.75 C99 4 99 4 97.21180725 3.52062988 C94.41598431 2.86253051 91.85899213 2.89727741 88.98608398 2.91992188 C87.77001968 2.92576294 86.55395538 2.931604 85.30104065 2.93762207 C83.98353317 2.94789429 82.6660257 2.9581665 81.30859375 2.96875 C78.48421936 2.98176891 75.65984556 2.98961169 72.83544922 2.99609375 C72.10739736 2.99795937 71.37934549 2.99982498 70.62923145 3.00174713 C62.88816706 3.01439007 55.14999224 2.90979302 47.41015625 2.78125 C46.73471142 2.77017212 46.05926659 2.75909424 45.36335373 2.74768066 C41.28570004 2.68022243 37.20812037 2.60897086 33.1305542 2.53643799 C29.59553297 2.47415284 26.06045955 2.41497413 22.52539062 2.35546875 C15.68354185 2.23987542 8.84175897 2.12079173 2 2 C2 6.29 2 10.58 2 15 C1.67 15 1.34 15 1 15 C0.67 10.05 0.34 5.1 0 0 Z " fill="#1074B2" transform="translate(926,906)"/>
<path d="M0 0 C0.33 0 0.66 0 1 0 C1 43.23 1 86.46 1 131 C2.65 131 4.3 131 6 131 C6 131.66 6 132.32 6 133 C4.68 133 3.36 133 2 133 C1.97494385 133.9286084 1.9498877 134.8572168 1.92407227 135.81396484 C1.82902068 139.25435804 1.72978293 142.69457713 1.62768555 146.13476562 C1.58433411 147.62462641 1.54265916 149.11453695 1.50268555 150.60449219 C1.44498785 152.74429327 1.38129245 154.88384385 1.31640625 157.0234375 C1.27974854 158.31169434 1.24309082 159.59995117 1.20532227 160.92724609 C1 164 1 164 0 166 C7.92 166 15.84 166 24 166 C24 166.33 24 166.66 24 167 C15.75 167 7.5 167 -1 167 C-1.10730942 134.89510807 -0.81059905 102.79217191 -0.55461788 70.68862903 C-0.49305909 62.96131711 -0.43310196 55.23399298 -0.37324238 47.50666773 C-0.25053842 31.67109818 -0.12593887 15.83554418 0 0 Z " fill="#1B98C4" transform="translate(528,592)"/>
<path d="M0 0 C22.11 0 44.22 0 67 0 C66.67 8.91 66.34 17.82 66 27 C65.67 27 65.34 27 65 27 C64.05779874 21.47291389 63.87883851 16.16241648 63.9375 10.5625 C63.94201172 9.73556641 63.94652344 8.90863281 63.95117188 8.05664062 C63.96284189 6.03772854 63.98077282 4.01885426 64 2 C56.0810395 2.10743284 48.16217718 2.22005214 40.24338722 2.33933926 C36.56658571 2.39456189 32.88977624 2.44798081 29.21289062 2.49731445 C25.66614134 2.54496779 22.11948974 2.59731091 18.5728569 2.65294075 C17.2180664 2.67335992 15.86324912 2.69207374 14.50841141 2.70907402 C12.61443211 2.73312739 10.72053957 2.76374383 8.82666016 2.79467773 C7.20783432 2.81799416 7.20783432 2.81799416 5.55630493 2.84178162 C3.00983443 2.83212193 3.00983443 2.83212193 1 4 C1.33 4.99 1.66 5.98 2 7 C2.08209792 8.77313851 2.10746294 10.54920775 2.09765625 12.32421875 C2.09443359 13.35224609 2.09121094 14.38027344 2.08789062 15.43945312 C2.07951172 16.51130859 2.07113281 17.58316406 2.0625 18.6875 C2.05798828 19.77095703 2.05347656 20.85441406 2.04882812 21.97070312 C2.03703743 24.64719085 2.02058063 27.32356777 2 30 C3.32 30.66 4.64 31.32 6 32 C4.02 32 2.04 32 0 32 C0 21.44 0 10.88 0 0 Z " fill="#223B5F" transform="translate(422,257)"/>
<path d="M0 0 C0.33 0 0.66 0 1 0 C1 9.57 1 19.14 1 29 C3.80371094 28.91621094 6.60742188 28.83242188 9.49609375 28.74609375 C12.19991847 28.66877518 14.90378692 28.5932123 17.60766602 28.51782227 C19.49248476 28.4643234 21.37725228 28.4089882 23.26196289 28.35180664 C25.96489411 28.2701149 28.66793839 28.1949446 31.37109375 28.12109375 C32.64296791 28.08054115 32.64296791 28.08054115 33.9405365 28.03916931 C35.95973106 27.98719474 37.98017158 27.98811787 40 28 C42.11925604 30.11925604 41.41831017 34.6196093 41.5625 37.5625 C41.60568359 38.36880859 41.64886719 39.17511719 41.69335938 40.00585938 C41.79975262 42.00368805 41.90040888 44.0018207 42 46 C41.01 46.495 41.01 46.495 40 47 C40 41.39 40 35.78 40 30 C27.13 30 14.26 30 1 30 C1 41.55 1 53.1 1 65 C0.67 65 0.34 65 0 65 C0 53.45 0 41.9 0 30 C-23.76 30 -47.52 30 -72 30 C-72 29.67 -72 29.34 -72 29 C-48.24 29 -24.48 29 0 29 C0 19.43 0 9.86 0 0 Z " fill="#A0C5D7" transform="translate(712,439)"/>
<path d="M0 0 C0.33 0 0.66 0 1 0 C1 4.29 1 8.58 1 13 C-51.47 13 -103.94 13 -158 13 C-158 12.67 -158 12.34 -158 12 C-107.51 12 -57.02 12 -5 12 C-5 11.34 -5 10.68 -5 10 C-4.01 9.67 -3.02 9.34 -2 9 C-1.19436362 6.89415562 -1.19436362 6.89415562 -0.8125 4.4375 C-0.65394531 3.61121094 -0.49539063 2.78492188 -0.33203125 1.93359375 C-0.22246094 1.29550781 -0.11289062 0.65742187 0 0 Z " fill="#1AA8CB" transform="translate(924,926)"/>
<path d="M0 0 C1.32 0.33 2.64 0.66 4 1 C3.01 1 2.02 1 1 1 C1 11.89 1 22.78 1 34 C11.89 34 22.78 34 34 34 C34 23.44 34 12.88 34 2 C34.66 2 35.32 2 36 2 C36 13.22 36 24.44 36 36 C31.03371566 36.02290956 26.06761337 36.04283643 21.10131836 36.05493164 C19.41055684 36.0599719 17.71979971 36.06680405 16.02905273 36.07543945 C13.60399293 36.08751857 11.17899056 36.09323123 8.75390625 36.09765625 C7.61327477 36.10539818 7.61327477 36.10539818 6.44960022 36.11329651 C4.6326743 36.11349238 2.81586873 36.06197277 1 36 C0 35 0 35 -0.11352539 31.67358398 C-0.11336629 30.19774444 -0.10767314 28.72189931 -0.09765625 27.24609375 C-0.09553383 26.08292381 -0.09553383 26.08292381 -0.09336853 24.89625549 C-0.08775345 22.40996506 -0.07519846 19.9237634 -0.0625 17.4375 C-0.05748694 15.75586067 -0.0529237 14.07421994 -0.04882812 12.39257812 C-0.03777913 8.26168434 -0.02050445 4.13085724 0 0 Z " fill="#3B4964" transform="translate(348,325)"/>
<path d="M0 0 C12.21 0 24.42 0 37 0 C37 11.22 37 22.44 37 34 C25.12 34 13.24 34 1 34 C1 33.34 1 32.68 1 32 C12.22 32 23.44 32 35 32 C35 21.77 35 11.54 35 1 C23.45 1 11.9 1 0 1 C0 0.67 0 0.34 0 0 Z " fill="#2A3B56" transform="translate(384,291)"/>
<path d="M0 0 C0.66 0 1.32 0 2 0 C2 0.66 2 1.32 2 2 C4.88174568 2.06701734 7.53812446 2.0976082 10.3659668 1.5 C13.13777858 0.97384646 15.63821606 0.90227398 18.45703125 0.9375 C19.48763672 0.94523438 20.51824219 0.95296875 21.58007812 0.9609375 C23.72330901 0.98683757 25.8665382 1.01287768 28.00976562 1.0390625 C32.54561578 1.0729754 36.95477393 1.09568671 41.44921875 0.4375 C44.7920351 0.02562384 46.78384121 0.24539964 50 1 C52.20742078 1.06681056 54.41668656 1.08534462 56.625 1.0625 C57.75164063 1.05347656 58.87828125 1.04445313 60.0390625 1.03515625 C61.01617188 1.02355469 61.99328125 1.01195312 63 1 C63.99 1 64.98 1 66 1 C66 1.99 66 2.98 66 4 C44.22 4 22.44 4 0 4 C0 2.68 0 1.36 0 0 Z " fill="#27305E" transform="translate(678,791)"/>
<path d="M0 0 C0 12.21 0 24.42 0 37 C-12.21 37 -24.42 37 -37 37 C-37 36.67 -37 36.34 -37 36 C-25.45 36 -13.9 36 -2 36 C-2 24.78 -2 13.56 -2 2 C-13.55 2 -25.1 2 -37 2 C-37 1.67 -37 1.34 -37 1 C-33.6461222 0.8271813 -30.291869 0.66298313 -26.9375 0.5 C-25.55208008 0.42845703 -25.55208008 0.42845703 -24.13867188 0.35546875 C-16.06307471 -0.03039596 -8.11499402 0 0 0 Z " fill="#154B81" transform="translate(677,397)"/>
<path d="M0 0 C0.33 0 0.66 0 1 0 C1.94719088 22.35723161 2.08413242 44.62077611 2 67 C-9.22 67 -20.44 67 -32 67 C-32 66.67 -32 66.34 -32 66 C-21.11 66 -10.22 66 1 66 C1 54.45 1 42.9 1 31 C-10.22 31 -21.44 31 -33 31 C-33 29.02 -33 27.04 -33 25 C-32.34 24.67 -31.68 24.34 -31 24 C-31 24.99 -31 25.98 -31 27 C-30.34 27 -29.68 27 -29 27 C-29 27.66 -29 28.32 -29 29 C-15.14 29.495 -15.14 29.495 -1 30 C-0.67 20.1 -0.34 10.2 0 0 Z " fill="#86BCD0" transform="translate(894,510)"/>
<path d="M0 0 C0.66 0 1.32 0 2 0 C2 11.88 2 23.76 2 36 C-10.21 36 -22.42 36 -35 36 C-34.505 31.545 -34.505 31.545 -34 27 C-33.67 27 -33.34 27 -33 27 C-33 29.31 -33 31.62 -33 34 C-22.11 34 -11.22 34 0 34 C0 22.78 0 11.56 0 0 Z " fill="#224162" transform="translate(788,505)"/>
<path d="M0 0 C0.33 0 0.66 0 1 0 C2.19865658 24.42432658 1.95120932 48.81030963 1.5625 73.25 C1.54327925 74.45934582 1.54327925 74.45934582 1.5236702 75.69312286 C1.36191578 85.79564972 1.18693633 95.89790685 1 106 C0.67 106 0.34 106 0 106 C0 82.9 0 59.8 0 36 C-11.88 36 -23.76 36 -36 36 C-36 35.67 -36 35.34 -36 35 C-24.12 35 -12.24 35 0 35 C0 23.45 0 11.9 0 0 Z " fill="#C9D1DB" transform="translate(933,362)"/>
<path d="M0 0 C1.98 0 3.96 0 6 0 C4.68 0.33 3.36 0.66 2 1 C2 11.56 2 22.12 2 33 C12.89 33 23.78 33 35 33 C35 33.66 35 34.32 35 35 C23.45 35 11.9 35 0 35 C0 23.45 0 11.9 0 0 Z " fill="#1F3251" transform="translate(861,326)"/>
<path d="M0 0 C0.33 0 0.66 0 1 0 C2.04141104 10.25389333 1.65238713 19.56180585 1 30 C32.68 30.495 32.68 30.495 65 31 C65 31.33 65 31.66 65 32 C43.22 32 21.44 32 -1 32 C-1 1 -1 1 0 0 Z " fill="#2996C6" transform="translate(422,620)"/>
<path d="M0 0 C0.66 0 1.32 0 2 0 C2 11.88 2 23.76 2 36 C-6.25 36 -14.5 36 -23 36 C-21 34 -21 34 -18.84521484 33.77294922 C-17.97590332 33.78342285 -17.1065918 33.79389648 -16.2109375 33.8046875 C-15.36321777 33.80968262 -14.51549805 33.81467773 -13.64208984 33.81982422 C-12.5639502 33.83803223 -11.48581055 33.85624023 -10.375 33.875 C-6.95125 33.91625 -3.5275 33.9575 0 34 C0 22.78 0 11.56 0 0 Z " fill="#8EDBF6" transform="translate(455,361)"/>
<path d="M0 0 C11.55 0 23.1 0 35 0 C35 0.33 35 0.66 35 1 C24.44 1 13.88 1 3 1 C1.89845533 4.30463401 1.84181283 6.82610919 1.79467773 10.30737305 C1.77473251 11.60849533 1.75478729 12.90961761 1.73423767 14.25016785 C1.71725454 15.6706836 1.70037569 17.0912006 1.68359375 18.51171875 C1.66301863 19.96475306 1.64202201 21.41778146 1.62062073 22.87080383 C1.56545766 26.6929953 1.51602302 30.51524026 1.46777344 34.33752441 C1.41751628 38.23873652 1.36185222 42.13987105 1.30664062 46.04101562 C1.19912959 53.69394469 1.09766902 61.34693833 1 69 C0.67 69 0.34 69 0 69 C0 46.23 0 23.46 0 0 Z " fill="#002856" transform="translate(1034,870)"/>
<path d="M0 0 C2.37791053 0.00545222 4.75563941 -0.00003055 7.13354492 -0.00634766 C8.65502971 -0.00568828 10.17651439 -0.00441005 11.69799805 -0.00244141 C12.4041777 -0.00446564 13.11035736 -0.00648987 13.8379364 -0.00857544 C16.88954524 0.00610331 19.23544753 0.15717717 22.1550293 1.13037109 C22.1550293 1.79037109 22.1550293 2.45037109 22.1550293 3.13037109 C4.9950293 3.13037109 -12.1649707 3.13037109 -29.8449707 3.13037109 C-29.8449707 2.47037109 -29.8449707 1.81037109 -29.8449707 1.13037109 C-19.87627536 0.24850565 -10.0007541 -0.0273676 0 0 Z " fill="#18A0CF" transform="translate(547.844970703125,934.86962890625)"/>
<path d="M0 0 C0.33 0.66 0.66 1.32 1 2 C1.99 2 2.98 2 4 2 C4 2.66 4 3.32 4 4 C4.84763916 3.94670532 4.84763916 3.94670532 5.71240234 3.89233398 C8.26628572 3.73498198 10.8205954 3.58613992 13.375 3.4375 C14.70917969 3.35338867 14.70917969 3.35338867 16.0703125 3.26757812 C17.34648438 3.19506836 17.34648438 3.19506836 18.6484375 3.12109375 C19.43395996 3.0739624 20.21948242 3.02683105 21.02880859 2.97827148 C23 3 23 3 25 4 C25.33 3.34 25.66 2.68 26 2 C26.67909424 2.16371094 27.35818848 2.32742188 28.05786133 2.49609375 C31.45414578 3.0777825 34.6279267 3.09469789 38.07421875 3.0625 C39.47078397 3.0539493 40.86734976 3.04548913 42.26391602 3.03710938 C43.34952316 3.02780396 43.34952316 3.02780396 44.45706177 3.01831055 C57.00670046 2.91528561 69.48088212 3.0139654 82 4 C82 4.33 82 4.66 82 5 C54.94 5 27.88 5 0 5 C0 3.35 0 1.7 0 0 Z " fill="#243568" transform="translate(748,826)"/>
<path d="M0 0 C10.56 0 21.12 0 32 0 C27.98038839 2.00980581 26.46807628 2.23947017 22.140625 2.1953125 C21.02558594 2.18886719 19.91054688 2.18242187 18.76171875 2.17578125 C17.60285156 2.15902344 16.44398438 2.14226562 15.25 2.125 C14.07566406 2.11597656 12.90132813 2.10695313 11.69140625 2.09765625 C8.79406464 2.07410063 5.89713559 2.04120652 3 2 C1.86082782 5.41751653 1.88661519 8.03487937 1.90234375 11.63671875 C1.90556641 12.93544922 1.90878906 14.23417969 1.91210938 15.57226562 C1.92046469 16.94401108 1.92892963 18.31575587 1.9375 19.6875 C1.94251665 21.07096195 1.94707927 22.45442563 1.95117188 23.83789062 C1.96297471 27.22530395 1.97943981 30.61263033 2 34 C1.34 34 0.68 34 0 34 C0 22.78 0 11.56 0 0 Z " fill="#A4DDE8" transform="translate(457,325)"/>
<path d="M0 0 C0.99 0.495 0.99 0.495 2 1 C2 11.89 2 22.78 2 34 C5.96 34 9.92 34 14 34 C13.34 34.66 12.68 35.32 12 36 C8.04 36 4.08 36 0 36 C0 24.12 0 12.24 0 0 Z " fill="#B1EBF0" transform="translate(420,361)"/>
<path d="M0 0 C5.28 0 10.56 0 16 0 C16 9.24 16 18.48 16 28 C15.34 28.33 14.68 28.66 14 29 C13.67 20.75 13.34 12.5 13 4 C8.22102336 1.96441214 8.22102336 1.96441214 3.6875 2.375 C1.8621875 2.684375 1.8621875 2.684375 0 3 C0 2.01 0 1.02 0 0 Z " fill="#23B4D2" transform="translate(584,654)"/>
<path d="M0 0 C11.22 0 22.44 0 34 0 C33.67 0.66 33.34 1.32 33 2 C23.43 2 13.86 2 4 2 C2.8958133 6.6710969 2.8958133 6.6710969 3 10.1875 C3 13 3 13 2 15 C1.76725791 17.87910588 1.58027243 20.74146495 1.4375 23.625 C1.39431641 24.42679688 1.35113281 25.22859375 1.30664062 26.0546875 C1.20048543 28.0362511 1.09973145 30.01810271 1 32 C0.67 32 0.34 32 0 32 C0 21.44 0 10.88 0 0 Z " fill="#283764" transform="translate(640,726)"/>
<path d="M0 0 C2.52561648 3.78842473 2.25391573 6.78533329 2.1953125 11.16796875 C2.1924826 11.96278152 2.18965271 12.7575943 2.18673706 13.57649231 C2.17554705 16.11364838 2.15044491 18.65045072 2.125 21.1875 C2.11496866 22.90819802 2.10584308 24.62890159 2.09765625 26.34960938 C2.07561161 30.56654243 2.04109006 34.78321125 2 39 C1.67 39 1.34 39 1 39 C0.855625 37.906875 0.71125 36.81375 0.5625 35.6875 C0.11711896 32.06877013 0.11711896 32.06877013 -1 29 C-1.09417014 27.12814643 -1.13071153 25.25312592 -1.1328125 23.37890625 C-1.13410156 22.27869141 -1.13539063 21.17847656 -1.13671875 20.04492188 C-1.13285156 18.89572266 -1.12898437 17.74652344 -1.125 16.5625 C-1.13080078 14.84450195 -1.13080078 14.84450195 -1.13671875 13.09179688 C-1.13542969 11.99029297 -1.13414062 10.88878906 -1.1328125 9.75390625 C-1.13168457 8.74658447 -1.13055664 7.7392627 -1.12939453 6.70141602 C-1.01454555 4.30367261 -0.68646802 2.29015822 0 0 Z " fill="#E4E9E8" transform="translate(824,466)"/>
<path d="M0 0 C0.66 0 1.32 0 2 0 C2 0.66 2 1.32 2 2 C10.04925101 2.02314421 18.09848817 2.04092572 26.14776421 2.05181217 C29.8851425 2.05703644 33.62249807 2.06412584 37.35986328 2.07543945 C40.96489816 2.0862845 44.56991116 2.09228028 48.17496109 2.09487724 C49.55210846 2.09672857 50.92925459 2.1003436 52.30639267 2.10573006 C54.23143094 2.11296181 56.15649112 2.11340824 58.08154297 2.11352539 C59.17852509 2.115746 60.2755072 2.11796661 61.4057312 2.12025452 C63.98513224 2.17631645 63.98513224 2.17631645 66 1 C66 1.99 66 2.98 66 4 C44.22 4 22.44 4 0 4 C0 2.68 0 1.36 0 0 Z " fill="#363363" transform="translate(678,791)"/>
<path d="M0 0 C10.23 0 20.46 0 31 0 C31 0.33 31 0.66 31 1 C21.76 1 12.52 1 3 1 C3 1.66 3 2.32 3 3 C2.34 3 1.68 3 1 3 C1 15.21 1 27.42 1 40 C0.67 40 0.34 40 0 40 C0 26.8 0 13.6 0 0 Z " fill="#082753" transform="translate(935,399)"/>
<path d="M0 0 C0 0.33 0 0.66 0 1 C-4.58556772 1.89663672 -8.9170222 2.11633191 -13.5859375 2.09765625 C-14.28772125 2.0962413 -14.989505 2.09482635 -15.71255493 2.09336853 C-17.93341504 2.0878129 -20.15417084 2.07526892 -22.375 2.0625 C-23.88932145 2.05747926 -25.4036445 2.05291736 -26.91796875 2.04882812 C-30.61201252 2.03785807 -34.30599606 2.02062449 -38 2 C-38 1.34 -38 0.68 -38 0 C-33.71356265 -0.1687634 -29.42691518 -0.32918968 -25.13989258 -0.48217773 C-23.68407983 -0.53527189 -22.22834567 -0.59057186 -20.77270508 -0.64819336 C-18.67025702 -0.73102362 -16.56764622 -0.80569592 -14.46484375 -0.87890625 C-12.57173462 -0.94960327 -12.57173462 -0.94960327 -10.64038086 -1.02172852 C-6.99888231 -0.99999333 -3.58770992 -0.60030977 0 0 Z " fill="#A5E7FC" transform="translate(677,395)"/>
<path d="M0 0 C0.66 0 1.32 0 2 0 C2.89749822 3.0682638 3.11711768 5.79269976 3.09765625 8.984375 C3.09443359 9.91894531 3.09121094 10.85351562 3.08789062 11.81640625 C3.07951172 12.78449219 3.07113281 13.75257813 3.0625 14.75 C3.05798828 15.73355469 3.05347656 16.71710937 3.04882812 17.73046875 C3.03706483 20.15370791 3.02062684 22.57682273 3 25 C2.67 24.34 2.34 23.68 2 23 C1.34 23 0.68 23 0 23 C0 15.41 0 7.82 0 0 Z " fill="#73D5EB" transform="translate(823,516)"/>
<path d="M0 0 C11.55 0 23.1 0 35 0 C35 4.95 35 9.9 35 15 C34.505 13.02 34.505 13.02 34 11 C33.34 11 32.68 11 32 11 C32 8.03 32 5.06 32 2 C32.66 1.67 33.32 1.34 34 1 C22.78 1 11.56 1 0 1 C0 0.67 0 0.34 0 0 Z " fill="#92CED8" transform="translate(791,505)"/>
<path d="M0 0 C3.96 0 7.92 0 12 0 C12 11.22 12 22.44 12 34 C11.67 34 11.34 34 11 34 C10.67 23.44 10.34 12.88 10 2 C6.7 2 3.4 2 0 2 C0 1.34 0 0.68 0 0 Z " fill="#60D4EC" transform="translate(803,834)"/>
<path d="M0 0 C0.33 0 0.66 0 1 0 C2.03351814 10.17617858 1.85803148 19.83562705 1 30 C-1.0251831 26.63840674 -1.24615544 24.07007867 -1.23046875 20.17578125 C-1.22853516 19.06525391 -1.22660156 17.95472656 -1.22460938 16.81054688 C-1.21236328 15.65619141 -1.20011719 14.50183594 -1.1875 13.3125 C-1.18685547 12.14654297 -1.18621094 10.98058594 -1.18554688 9.77929688 C-1.14026365 1.14026365 -1.14026365 1.14026365 0 0 Z " fill="#1E93C2" transform="translate(422,620)"/>
<path d="M0 0 C11.22 0 22.44 0 34 0 C34 1.98 34 3.96 34 6 C32.68528432 5.71848913 31.37324233 5.42446661 30.0625 5.125 C29.33160156 4.96257812 28.60070312 4.80015625 27.84765625 4.6328125 C26 4 26 4 25 2 C16.75 1.67 8.5 1.34 0 1 C0 0.67 0 0.34 0 0 Z " fill="#023059" transform="translate(898,505)"/>
<path d="M0 0 C11.55 0 23.1 0 35 0 C35 0.33 35 0.66 35 1 C34.34926514 1.02505615 33.69853027 1.0501123 33.02807617 1.07592773 C30.08101954 1.19193702 27.1342787 1.31464115 24.1875 1.4375 C22.65125977 1.49647461 22.65125977 1.49647461 21.08398438 1.55664062 C20.10107422 1.59853516 19.11816406 1.64042969 18.10546875 1.68359375 C17.19949951 1.72025146 16.29353027 1.75690918 15.36010742 1.79467773 C12.84951218 1.9208205 12.84951218 1.9208205 10 3 C9.34 2.67 8.68 2.34 8 2 C6.62657169 1.9310528 5.24997898 1.91532292 3.875 1.9375 C1.956875 1.9684375 1.956875 1.9684375 0 2 C0 1.34 0 0.68 0 0 Z " fill="#345B93" transform="translate(311,469)"/>
<path d="M0 0 C11.55 0 23.1 0 35 0 C35 0.33 35 0.66 35 1 C24.44 1 13.88 1 3 1 C2.34 3.64 1.68 6.28 1 9 C0.67 9 0.34 9 0 9 C0 6.03 0 3.06 0 0 Z " fill="#152A4D" transform="translate(1034,870)"/>
<path d="M0 0 C11.55 0 23.1 0 35 0 C34.67 1.32 34.34 2.64 34 4 C33.14841309 3.67854004 32.29682617 3.35708008 31.41943359 3.02587891 C27.89341551 1.96802313 24.96020423 1.6869781 21.2890625 1.5859375 C19.42314453 1.52792969 19.42314453 1.52792969 17.51953125 1.46875 C16.23433594 1.4378125 14.94914063 1.406875 13.625 1.375 C12.31660156 1.33632813 11.00820313 1.29765625 9.66015625 1.2578125 C6.44024284 1.16380043 3.2203312 1.07814179 0 1 C0 0.67 0 0.34 0 0 Z " fill="#01345B" transform="translate(753,505)"/>
<path d="M0 0 C10.89 0 21.78 0 33 0 C33 0.66 33 1.32 33 2 C28.25 3.125 28.25 3.125 26 2 C24.0406396 1.91489795 22.07837206 1.89282344 20.1171875 1.90234375 C18.36728516 1.90717773 18.36728516 1.90717773 16.58203125 1.91210938 C15.35871094 1.92048828 14.13539063 1.92886719 12.875 1.9375 C11.64394531 1.94201172 10.41289063 1.94652344 9.14453125 1.95117188 C6.09630608 1.9629867 3.04817686 1.97945972 0 2 C0 1.34 0 0.68 0 0 Z " fill="#022C60" transform="translate(567,505)"/>
<path d="M0 0 C3.75404493 0.33690147 7.42120348 -0.25013406 11.1328125 -0.80859375 C11.1328125 -0.14859375 11.1328125 0.51140625 11.1328125 1.19140625 C11.7928125 1.52140625 12.4528125 1.85140625 13.1328125 2.19140625 C4.2228125 2.19140625 -4.6871875 2.19140625 -13.8671875 2.19140625 C-13.5371875 1.53140625 -13.2071875 0.87140625 -12.8671875 0.19140625 C-8.32875733 -0.82742501 -4.5714996 -0.70813425 0 0 Z " fill="#3480C1" transform="translate(473.8671875,502.80859375)"/>
<path d="M0 0 C1.2375 0.02578125 2.475 0.0515625 3.75 0.078125 C5.60625 0.10132813 5.60625 0.10132813 7.5 0.125 C10.75 0.328125 10.75 0.328125 13.75 1.328125 C13.75 1.988125 13.75 2.648125 13.75 3.328125 C7.15 3.328125 0.55 3.328125 -6.25 3.328125 C-3.25 0.328125 -3.25 0.328125 0 0 Z " fill="#272E5B" transform="translate(622.25,718.671875)"/>
<path d="M0 0 C0.33 0 0.66 0 1 0 C1 7.92 1 15.84 1 24 C-0.32 24 -1.64 24 -3 24 C-3 23.34 -3 22.68 -3 22 C-2.34 22 -1.68 22 -1 22 C-0.67 14.74 -0.34 7.48 0 0 Z " fill="#1C91C8" transform="translate(599,479)"/>
<path d="M0 0 C0.99 0 1.98 0 3 0 C3 4.29 3 8.58 3 13 C2.67 11.68 2.34 10.36 2 9 C1.34 9 0.68 9 0 9 C0 6.03 0 3.06 0 0 Z " fill="#85D1E4" transform="translate(823,507)"/>
<path d="M0 0 C7.59 0 15.18 0 23 0 C23 0.33 23 0.66 23 1 C21.06263299 1.16820551 19.12510094 1.33451095 17.1875 1.5 C15.56908203 1.63921875 15.56908203 1.63921875 13.91796875 1.78125 C9.11316819 2.14144924 4.7574351 1.62392592 0 1 C0 0.67 0 0.34 0 0 Z " fill="#24B7D0" transform="translate(468,654)"/>
<path d="M0 0 C0.66 0 1.32 0 2 0 C2 0.66 2 1.32 2 2 C2.99 1.67 3.98 1.34 5 1 C7.6875 1.4375 7.6875 1.4375 10 2 C10 2.66 10 3.32 10 4 C6.7 4 3.4 4 0 4 C0 2.68 0 1.36 0 0 Z " fill="#1699CE" transform="translate(567,499)"/>
<path d="M0 0 C0.66 0 1.32 0 2 0 C3.0257259 4.41062136 3.03684712 6.92630576 1 11 C0.67 11 0.34 11 0 11 C0 7.37 0 3.74 0 0 Z " fill="#233561" transform="translate(794,296)"/>
<path d="M0 0 C4.29 0 8.58 0 13 0 C12.67 0.99 12.34 1.98 12 3 C11.319375 2.855625 10.63875 2.71125 9.9375 2.5625 C6.63726918 1.93054091 3.32855574 1.45686059 0 1 C0 0.67 0 0.34 0 0 Z " fill="#1BA5CF" transform="translate(315,691)"/>
<path d="M0 0 C0.33 0 0.66 0 1 0 C1 1.65 1 3.3 1 5 C1.66 5 2.32 5 3 5 C3 5.66 3 6.32 3 7 C0.03 7 -2.94 7 -6 7 C-6 6.34 -6 5.68 -6 5 C-4.35 4.67 -2.7 4.34 -1 4 C-0.67 2.68 -0.34 1.36 0 0 Z " fill="#88E1F7" transform="translate(822,534)"/>
<path d="M0 0 C1.32 0 2.64 0 4 0 C4 3.3 4 6.6 4 10 C3.67 10 3.34 10 3 10 C2.67 8.02 2.34 6.04 2 4 C1.01 3.67 0.02 3.34 -1 3 C-0.67 2.01 -0.34 1.02 0 0 Z " fill="#16BBDA" transform="translate(845,834)"/>
<path d="M0 0 C1.65 0 3.3 0 5 0 C4.01 0.495 4.01 0.495 3 1 C2.31527335 2.88764903 2.31527335 2.88764903 1.875 5.0625 C1.70742187 5.79597656 1.53984375 6.52945313 1.3671875 7.28515625 C1.24601562 7.85105469 1.12484375 8.41695312 1 9 C0.67 9 0.34 9 0 9 C0 6.03 0 3.06 0 0 Z " fill="#06254F" transform="translate(1034,870)"/>
<path d="M0 0 C1.32 0 2.64 0 4 0 C3.25 5.75 3.25 5.75 1 8 C0.67 5.36 0.34 2.72 0 0 Z " fill="#253566" transform="translate(855,471)"/>
</svg>
